<svg width="434" height="597" fill="none" xmlns="http://www.w3.org/2000/svg"><g clip-path="url(#Astronaut suit-cuate 1__a)"><path d="m378.314 405.805 6.587 1.206 1.47 6.937 1.471-6.937 6.587-1.218-6.563-1.6-1.495-6.543-1.506 6.543-6.551 1.612Zm-271.703-37.444 6.587 1.218 1.47 6.937 1.471-6.937 6.586-1.218-6.55-1.6-1.507-6.543-1.494 6.543-6.563 1.6Zm204.438-145.74 6.587 1.218 1.47 6.937 1.471-6.937 6.586-1.218-6.562-1.6-1.495-6.543-1.494 6.543-6.563 1.6Zm-149.437 289.82 3.67.68.825 3.881.824-3.881 3.682-.68-3.67-.896-.836-3.653-.837 3.653-3.658.896Zm244.794-329.007 3.682.681.825 3.868.825-3.868 3.682-.681-3.67-.895-.837-3.666-.837 3.666-3.67.895Zm-393.419 90.47 3.682.68.825 3.869.825-3.869 3.681-.68-3.67-.896-.836-3.665-.837 3.665-3.67.896Zm4.507 197.237 3.682.68.825 3.869.813-3.869 3.681-.68-3.657-.896-.837-3.666-.849 3.666-3.658.896ZM373.808 277.76l3.682.681.825 3.88.825-3.88 3.681-.681-3.669-.895-.837-3.654-.837 3.654-3.67.895ZM287.93 381.053l3.682.681.825 3.88.825-3.88 3.67-.681-3.658-.895-.837-3.654-.837 3.654-3.67.895ZM131.535 90.111l3.682.68.825 3.881.825-3.88 3.682-.68-3.67-.896-.837-3.654-.837 3.654-3.67.895Zm132.451 172.235 3.682.68.813 3.869.825-3.869 3.682-.68-3.658-.896-.849-3.665-.837 3.665-3.658.896ZM152.897 520.823a1.073 1.073 0 0 1 0 2.137 1.078 1.078 0 0 1-.962-1.069 1.07 1.07 0 0 1 .962-1.068Zm190.321-199.864a1.076 1.076 0 0 1 0 2.138 1.078 1.078 0 0 1-.963-1.069 1.075 1.075 0 0 1 .963-1.069Zm-91.03 89.777a1.066 1.066 0 0 1 1.064 1.063 1.063 1.063 0 0 1-1.817.751 1.062 1.062 0 0 1 .753-1.814ZM93.952 512.835a1.066 1.066 0 0 1 1.064 1.063 1.062 1.062 0 0 1-1.064 1.062 1.065 1.065 0 0 1-1.064-1.062 1.064 1.064 0 0 1 1.064-1.063Zm288.869 1.469a1.064 1.064 0 1 1 0 2.125 1.064 1.064 0 0 1 0-2.125Zm11.166-179.375a1.066 1.066 0 0 1 1.063 1.063 1.064 1.064 0 1 1-1.063-1.063Zm-214.36 166.73a.752.752 0 1 1-.753.752.75.75 0 0 1 .753-.752ZM28.91 110.23a.763.763 0 0 1 0 1.516.766.766 0 0 1-.67-.758.762.762 0 0 1 .67-.758Zm291.093 242.299a.751.751 0 1 1 0 1.504.751.751 0 1 1 0-1.504Zm-36.472 65.228a.751.751 0 1 1 0 1.504.753.753 0 0 1 0-1.504Zm-59.71-12.716a.765.765 0 0 1 0 1.516.766.766 0 0 1-.479-1.264.77.77 0 0 1 .479-.252Zm70.588-66.208a2.046 2.046 0 0 1 2.044 2.042 2.041 2.041 0 0 1-2.044 2.042 2.044 2.044 0 0 1-1.445-3.486 2.044 2.044 0 0 1 1.445-.598ZM90.928 167.924l6.586 1.218 1.47 6.937 1.471-6.937 6.587-1.218-6.551-1.6-1.506-6.555-1.495 6.555-6.562 1.6Zm169.388-53.622 3.682.68.825 3.869.825-3.869 3.682-.692-3.67-.884-.837-3.665-.837 3.665-3.67.896Zm-220.54 41.635a1.072 1.072 0 0 1 .687 1.787 1.078 1.078 0 0 1-.687.35 1.078 1.078 0 0 1-.962-1.069 1.077 1.077 0 0 1 .962-1.068ZM8.469 454.556a1.074 1.074 0 0 1 0 2.137 1.078 1.078 0 0 1-.963-1.069 1.072 1.072 0 0 1 .963-1.068Zm-6.216 60.81a1.062 1.062 0 1 1 0 2.125 1.062 1.062 0 0 1 0-2.125Zm31.965-254.095a1.078 1.078 0 0 1 .962 1.069 1.072 1.072 0 0 1-.962 1.068 1.073 1.073 0 0 1 0-2.137ZM12.987 75.652a1.076 1.076 0 0 1 .687 1.787 1.076 1.076 0 0 1-.687.35 1.076 1.076 0 0 1-.686-1.787c.178-.198.422-.322.686-.35Zm63.44 328.099a.763.763 0 0 1 .479 1.264.773.773 0 0 1-.479.253.766.766 0 0 1-.478-1.264.763.763 0 0 1 .478-.253Zm159.205 96.631a.753.753 0 1 1 0 1.506.753.753 0 0 1 0-1.506Zm112.08-344.887a.767.767 0 0 1 .479 1.263.766.766 0 0 1-.479.253.761.761 0 0 1-.669-.758.767.767 0 0 1 .669-.758Zm-136.335-46.16a.753.753 0 1 1 0 1.506.753.753 0 0 1 0-1.506ZM166.119 376.97a2.044 2.044 0 0 1 2.044 2.042 2.042 2.042 0 0 1-2.044 2.041 2.046 2.046 0 0 1-2.045-2.041 2.042 2.042 0 0 1 2.045-2.042Zm269.383-154.349a2.054 2.054 0 0 1 0 4.096 2.054 2.054 0 0 1 0-4.096ZM16.968 401.709a2.045 2.045 0 0 1 2.044 2.042 2.04 2.04 0 0 1-2.044 2.042 2.045 2.045 0 0 1-2.044-2.042 2.042 2.042 0 0 1 2.044-2.042Zm171.803-78.613 3.682.681.825 3.869.825-3.869 3.682-.681-3.67-.895-.837-3.666-.837 3.666-3.67.895Zm78.192 185.393 3.682.68.813 3.869.824-3.869 3.682-.692-3.658-.884-.848-3.665-.837 3.665-3.658.896Zm16.305-47.748a1.071 1.071 0 0 1 .962 1.068 1.071 1.071 0 0 1-.962 1.069 1.076 1.076 0 0 1-.687-1.787c.178-.198.423-.322.687-.35Zm53.004 9.337a1.064 1.064 0 1 1 0 2.126 1.064 1.064 0 0 1 0-2.126Zm-142.994 11.259 3.682.681.825 3.88.825-3.88 3.681-.681-3.669-.895-.837-3.666-.837 3.666-3.67.895Zm76.243-265.462c.264.028.509.153.687.35.177.198.276.454.276.719 0 .265-.099.521-.276.719a1.08 1.08 0 0 1-.687.35 1.08 1.08 0 0 1-.687-.35 1.08 1.08 0 0 1-.276-.719c0-.265.099-.521.276-.719a1.08 1.08 0 0 1 .687-.35ZM370.449 435.81a.753.753 0 1 1 0 1.506.753.753 0 0 1 0-1.506ZM49.304 307.598l3.682.681.813 3.869.825-3.869 3.681-.681-3.658-.895-.848-3.666-.837 3.666-3.658.895ZM6.807 366.236a1.066 1.066 0 0 1 1.064 1.062 1.064 1.064 0 1 1-1.816-.751c.2-.199.47-.311.752-.311Zm147.118-78.482a1.066 1.066 0 0 1 .753 1.814 1.062 1.062 0 0 1-1.505 0 1.062 1.062 0 0 1 .752-1.814ZM28.91 180.091a.763.763 0 0 1 .478 1.264.772.772 0 0 1-.478.253.764.764 0 0 1 0-1.517Zm-9.67-6.961a2.045 2.045 0 0 1 2.044 2.042 2.042 2.042 0 0 1-3.49 1.444 2.042 2.042 0 0 1 1.445-3.486Z" fill="#C7C7C7"/><path d="M56.512 130.039c18.142 0 32.85-14.69 32.85-32.811 0-18.122-14.708-32.812-32.85-32.812-18.142 0-32.85 14.69-32.85 32.812 0 18.121 14.708 32.811 32.85 32.811Z" fill="#EBEBEB"/><path d="M68.454 77.765a7.313 7.313 0 0 1-1.195 4.454 8.854 8.854 0 0 1-3.586 3.152 6.498 6.498 0 0 1-4.782.406 6.753 6.753 0 0 1-3.682-2.818 9.809 9.809 0 0 0 3.945 1.731c.668.12 1.352.12 2.02 0a6.641 6.641 0 0 0 1.913-.62l.908-.49c.287-.203.598-.382.861-.597.558-.424 1.07-.904 1.53-1.433a11.196 11.196 0 0 0 2.068-3.785Zm-11.798 1.887a4.688 4.688 0 0 1 .68-3.14 5.974 5.974 0 0 1 2.475-2.245 4.475 4.475 0 0 1 3.42-.239 4.338 4.338 0 0 1 2.462 2.09 7.31 7.31 0 0 0-2.726-1.003 4.416 4.416 0 0 0-2.534.442 7.776 7.776 0 0 0-3.777 4.095Zm-.156 33.002a4.4 4.4 0 0 1 .084 3.128 5.394 5.394 0 0 1-1.89 2.651 4.3 4.3 0 0 1-3.239.872 4.393 4.393 0 0 1-2.75-1.517 7.88 7.88 0 0 0 2.798.394 4.234 4.234 0 0 0 2.32-.883 6.874 6.874 0 0 0 1.744-1.958 8.13 8.13 0 0 0 .933-2.687Zm-6.79 3.725a2.824 2.824 0 0 1-.227-2.209 3.586 3.586 0 0 1 1.315-1.91 2.985 2.985 0 0 1 2.391-.597 2.859 2.859 0 0 1 1.865 1.194 6.342 6.342 0 0 0-1.925-.084c-.518.08-1.007.29-1.422.609a5.481 5.481 0 0 0-1.997 2.997Zm-5.045-33.241a2.984 2.984 0 0 1 .945 2.102 3.185 3.185 0 0 1-.933 2.316 2.846 2.846 0 0 1-2.39.824 3.408 3.408 0 0 1-2.069-.98c.685.018 1.37-.03 2.045-.142a2.595 2.595 0 0 0 1.41-.705 3.31 3.31 0 0 0 .825-1.42 5.83 5.83 0 0 0 .167-1.995Zm-4.064 3.188a1.875 1.875 0 0 1-.813-1.456 2.217 2.217 0 0 1 .646-1.72 2.08 2.08 0 0 1 1.793-.585 2.164 2.164 0 0 1 1.41.86c-.467.064-.93.155-1.386.274-.302.08-.578.237-.801.454a2.68 2.68 0 0 0-.55.836c-.163.43-.263.88-.299 1.337Zm26.897 31.39a2.954 2.954 0 0 1-1.817 1.421 3.197 3.197 0 0 1-2.486-.334 2.87 2.87 0 0 1-1.4-2.125 3.579 3.579 0 0 1 .455-2.245c.156.666.367 1.317.634 1.946.212.494.57.911 1.028 1.194a3.37 3.37 0 0 0 1.59.454 5.992 5.992 0 0 0 1.996-.311Zm-4.088-3.163a1.889 1.889 0 0 1 1.195-1.194 2.238 2.238 0 0 1 1.829.214 2.035 2.035 0 0 1 1.004 1.6 2.15 2.15 0 0 1-.49 1.565 11.81 11.81 0 0 0-.598-1.266 1.75 1.75 0 0 0-.645-.669 2.672 2.672 0 0 0-.945-.334 4.86 4.86 0 0 0-1.35.084Zm15.336-19.917a2.887 2.887 0 0 1-.705 2.197 3.215 3.215 0 0 1-2.235 1.11 2.887 2.887 0 0 1-2.391-.978 3.437 3.437 0 0 1-.885-2.114c.5.448 1.04.848 1.614 1.194a2.5 2.5 0 0 0 1.518.406 3.29 3.29 0 0 0 1.674-.453 6.131 6.131 0 0 0 1.41-1.362Zm-5.163-.31a1.837 1.837 0 0 1 .358-1.624 2.223 2.223 0 0 1 1.626-.86 2.058 2.058 0 0 1 1.733.765 2.102 2.102 0 0 1 .49 1.564c-.478-.287-.86-.55-1.195-.717a1.83 1.83 0 0 0-.909-.179 2.537 2.537 0 0 0-.968.251 4.95 4.95 0 0 0-1.135.8Zm-38.349 7.737a2.933 2.933 0 0 1-.693 2.197 3.19 3.19 0 0 1-2.236 1.11 2.848 2.848 0 0 1-2.39-.979 3.41 3.41 0 0 1-.885-2.101 10.73 10.73 0 0 0 1.625 1.194c.45.294.981.441 1.519.418a3.373 3.373 0 0 0 1.566-.514 5.945 5.945 0 0 0 1.494-1.325Zm-5.152-.322a1.883 1.883 0 0 1 .346-1.624 2.297 2.297 0 0 1 1.638-.86 2.047 2.047 0 0 1 1.721.765 2.128 2.128 0 0 1 .514 1.576 10.49 10.49 0 0 0-1.195-.717 1.715 1.715 0 0 0-.909-.191 2.786 2.786 0 0 0-.956.251 4.793 4.793 0 0 0-1.16.8Z" fill="#C7C7C7"/><path d="M-7.614 561.425c149.393-12.14 316.967-12.14 466.36 0-149.393 11.943-316.967 11.943-466.36 0Z" fill="#CBD6DB"/><path d="M221.477 242.382c-.956 1.409-77.617 2.794-82.148 1.946a2.98 2.98 0 0 1-.633-.191c-5.703-1.982-26.228-17.002-28.308-18.686-5.152-4.167 20.418-115.722 32.276-129.036 2.989-3.343 59.639-4.871 70.338-1.265 4.626 1.564 16.15 15.629 16.64 17.456.55 2.699-7.208 128.379-8.165 129.776Z" fill="#FF7A00"/><path opacity=".1" d="M221.477 242.382c-.956 1.409-77.617 2.794-82.148 1.946a2.98 2.98 0 0 1-.633-.191c-5.703-1.982-26.228-17.002-28.308-18.686-5.152-4.167 20.418-115.722 32.276-129.036 2.989-3.343 59.639-4.871 70.338-1.265 4.626 1.564 16.15 15.629 16.64 17.456.55 2.699-7.208 128.379-8.165 129.776Z" fill="#000"/><path opacity=".1" d="M221.477 242.382c-.956 1.409-77.617 2.794-82.148 1.946a2.98 2.98 0 0 1-.633-.191c-2.116-19.367 20.967-130.337 22.079-131.113 1.111-.776 55.658-.287 68.855-.43.562 2.711-7.196 128.391-8.153 129.788Z" fill="#000"/><path d="M155.037 138.623c-.072.394-.156.765-.227 1.194-8.619-2.686-17.429-5.122-25.821-8.465l.143-.502c8.488 2.878 17.238 5.194 25.905 7.773Zm-.837 3.941c-.083.382-.167.776-.239 1.194-8.726-2.711-17.644-5.182-26.143-8.561l.143-.49c8.643 2.89 17.513 5.254 26.239 7.857Zm-.801 3.952c-.072.382-.155.764-.239 1.194h-.239c-8.739-2.723-17.68-5.194-26.192-8.561 0-.167.084-.335.132-.502 8.691 2.937 17.608 5.302 26.383 7.94a.68.68 0 0 1 .155-.071Zm-12.086 67.628c-.059.394-.107.776-.167 1.194-1.267-.513-2.51-1.051-3.766-1.588-8.367-4.155-16.986-8.083-24.995-12.883 0-.167.059-.347.095-.514 8.308 4.406 16.939 8.251 25.379 12.322 1.123.466 2.283.979 3.454 1.469Zm-.621 4.107c0 .382-.108.764-.156 1.123a127.376 127.376 0 0 1-4.925-2.042c-8.021-3.976-16.269-7.749-24.004-12.31 0-.191 0-.382.096-.561 7.997 4.191 16.305 7.88 24.41 11.796 1.53.693 3.06 1.361 4.579 1.994Zm-.514 4.108-.144 1.194a190.325 190.325 0 0 1-6.072-2.52c-7.675-3.797-15.541-7.426-22.976-11.713 0-.203 0-.418.096-.621 7.674 3.964 15.612 7.51 23.382 11.26 1.841.788 3.753 1.6 5.714 2.4Zm19.855-46.841a4.846 4.846 0 0 1-4.359 3.074 4.851 4.851 0 0 1-4.551-2.783 4.843 4.843 0 0 1 .759-5.276 4.853 4.853 0 0 1 5.151-1.391 4.982 4.982 0 0 1 3 6.376Z" fill="#FF7A00"/><path opacity=".1" d="M158.623 174.993a3.322 3.322 0 0 1-4.828 1.614 3.32 3.32 0 0 1 2.772-5.984c.853.307 1.548.94 1.934 1.759.385.82.429 1.759.122 2.611Z" fill="#000"/><path d="M156.89 193.619a4.853 4.853 0 0 1-7.052 2.377 4.85 4.85 0 0 1-2.275-4.825 4.853 4.853 0 0 1 6.326-3.916 4.975 4.975 0 0 1 3.001 6.364Z" fill="#FF7A00"/><path opacity=".1" d="M155.443 193.141a3.325 3.325 0 0 1-6.099.196 3.317 3.317 0 0 1 2.138-4.616 3.331 3.331 0 0 1 1.905.05 3.42 3.42 0 0 1 1.934 1.76c.386.82.43 1.758.122 2.61Z" fill="#000"/><path d="M218.321 140.534c13.425 27.689 24.781 56.118 40.752 60.894 15.181 4.477 52.848-32.465 59.435-44.918 2.271-4.287-28.941-24.239-33.125-21.158-7.889 5.803-22.378 24.346-24.756 23.784-2.379-.561-16.533-17.91-34.476-33.778-10.878-9.647-17.142-4-7.83 15.176Z" fill="#D3766A"/><path d="M311.85 165.691c3.108-2.973 19.951-23.08 22.712-28.023 2.762-4.943 9.468-19.713 5.882-22.16-3.587-2.448-5.894 1.707-5.894 1.707s1.865-6.686-1.96-8.836c-3.825-2.149-7.232 4.466-7.232 4.466s1.422-7.009-2.547-8.883c-3.968-1.875-6.275 5.349-6.275 5.349s1.589-6.352-2.331-6.508c-4.71-.203-6.324 11.833-9.719 17.063-.777 1.194-17.357 22.948-17.357 22.948l24.721 22.877Z" fill="#37474F"/><path d="M316.691 108.654c-1.195 8.848-3.263 12.501-8.918 19.235-.119.132.06.335.18.203 6.144-6.089 9.395-10.316 9.168-19.402-.012-.406-.37-.418-.43-.036Zm8.703 3.486c-2.056 9.075-4.256 13.134-9.659 20.561-.072.108.096.239.179.143 5.918-6.901 9.061-11.187 9.922-20.536.048-.418-.347-.586-.442-.168Zm8.822 5.445c-2.63 8.657-4.853 13.134-11.034 19.725a.164.164 0 0 0-.032.11.167.167 0 0 0 .045.105.178.178 0 0 0 .103.051.17.17 0 0 0 .112-.027c6.957-6.102 9.778-11.678 11.057-19.857.084-.549-.119-.68-.251-.107Z" fill="#263238"/><path d="M281.415 145.155s.526-11.176 1.841-16.036c1.315-4.859 12.838-21.181 16.544-18.877 4.782 2.961-.084 13.695-3.132 18.638 0 0 10.962 6.842 9.181 15.296-1.781 8.453-24.434.979-24.434.979Z" fill="#37474F"/><path d="M300.876 111.484c2.391 5.815-2.056 12.047-4.65 17.062a.525.525 0 0 0 .358.776c4.399 3.176 9.695 8.931 9.564 14.662a.131.131 0 0 0 .224.093.13.13 0 0 0 .039-.093c.944-6.125-3.79-12.214-8.835-15.378 2.75-5.111 6.898-11.558 3.324-17.182-.024 0-.024.012-.024.06Z" fill="#263238"/><path d="m281.965 137.596 31.845 27.08a22.869 22.869 0 0 1-6.072 11.033c-12.361 12.155-37.572 30.268-48.103 27.271-14.787-4.203-35.946-43.88-44.158-69.754-5.679-17.91 4.088-14.734 14.165-5.731 10.077 9.003 30.734 29.922 31.929 29.635.718-.167 11.261-12.453 13.556-14.901a15.62 15.62 0 0 1 6.838-4.633Z" fill="#FF7A00"/><path d="m281.965 137.596 31.845 27.08a22.869 22.869 0 0 1-6.072 11.033c-12.361 12.155-37.572 30.268-48.103 27.271-14.787-4.203-35.946-43.88-44.158-69.754-5.679-17.91 4.088-14.734 14.165-5.731 10.077 9.003 30.734 29.922 31.929 29.635.718-.167 11.261-12.453 13.556-14.901a15.62 15.62 0 0 1 6.838-4.633Z" fill="#fff" opacity=".4"/><path opacity=".1" d="M304.785 171.733c-4.698-4.024-23.311-21.182-27.088-25.158-.251-.286-.143-.513.167-.262 14.345 11.713 22.713 21.05 27.076 25.229.108.107-.036.298-.155.191Z" fill="#000"/><path opacity=".1" d="M268.684 202.085c-3.586 1.194-6.682 1.564-9.061.895-14.775-4.191-35.946-43.879-44.146-69.753-.192-.574-.359-1.194-.503-1.672a28.06 28.06 0 0 1-.466-1.791l-.107-.478c-.993-4.429-.67-7.032.514-8.226a2.821 2.821 0 0 1 1.135-.681 4.333 4.333 0 0 1 1.734-.095 8.656 8.656 0 0 1 1.506.74c13.364 19.94 37.559 61.204 49.394 81.061Z" fill="#000102"/><path d="m262.922 155.626-2.785.048-1.16 45.24 7.89-.119-3.945-45.169Z" fill="#FF7A00"/><path d="M254.112 185.428c-5.846 1.481-7.424 12.704-3.037 15.104 5.834 3.188 21.769 4.096 25.869.717 2.785-2.293 3.359-12.478-.443-14.328-2.271-1.123-5.379-.824-11.954-1.027-2.629-.084-6.538-1.445-10.435-.466Z" fill="#FF7A00"/><path opacity=".7" d="M254.112 185.428c-5.846 1.481-7.424 12.704-3.037 15.104 5.834 3.188 21.769 4.096 25.869.717 2.785-2.293 3.359-12.478-.443-14.328-2.271-1.123-5.379-.824-11.954-1.027-2.629-.084-6.538-1.445-10.435-.466Z" fill="#fff"/><path d="M276.86 188.545a12.877 12.877 0 0 1-1.195 12.489 48.61 48.61 0 0 0 1.195-12.489Zm-2.498-1.015a17.234 17.234 0 0 1-1.303 14.125 83.334 83.334 0 0 0 1.303-14.125Zm-2.833-.215a18.494 18.494 0 0 1-1.387 14.877 78.422 78.422 0 0 0 1.387-14.877Zm-3.432-.263c1.578 4.943 1.459 10.746-1.255 15.331a76.368 76.368 0 0 0 1.255-15.331Zm-17.094 12.346a11.824 11.824 0 0 1 1.1-11.94 43.827 43.827 0 0 0-1.1 11.94Zm2.451 1.517a17.193 17.193 0 0 1 1.303-14.125 81.905 81.905 0 0 0-1.303 14.125Zm2.833.214a18.462 18.462 0 0 1 1.375-14.865 79.336 79.336 0 0 0-1.375 14.877v-.012Zm3.024.8c-1.47-5.015-1.279-10.877 1.435-15.438a85.508 85.508 0 0 0-1.435 15.438Zm2.606.203c-1.47-5.014-1.279-10.877 1.435-15.45a85.648 85.648 0 0 0-1.435 15.45Zm3.36-15.295a27.846 27.846 0 0 1-1.017 15.689c.311-5.194.443-10.495 1.017-15.689Z" opacity=".7" fill="#FF7A00"/><path d="M310.439 553.24h-4.59a4.045 4.045 0 0 0-.287-1.433 4.421 4.421 0 0 0-2.445-2.31 4.432 4.432 0 0 0-3.365.077 4.62 4.62 0 0 0-2.869 3.582h-4.172a4.006 4.006 0 0 0-.203-1.528 4.396 4.396 0 0 0-5.81-2.233 4.561 4.561 0 0 0-2.845 3.666h-4.184a3.873 3.873 0 0 0-.298-1.529 4.399 4.399 0 0 0-2.435-2.318 4.389 4.389 0 0 0-3.363.086 4.53 4.53 0 0 0-2.857 3.713h-4.172a4.075 4.075 0 0 0-.311-1.576 4.396 4.396 0 0 0-5.81-2.233 4.548 4.548 0 0 0-1.957 1.48 4.548 4.548 0 0 0-.9 2.281h-4.172a3.814 3.814 0 0 0-.287-1.624 4.412 4.412 0 0 0-5.809-2.232 4.53 4.53 0 0 0-2.869 3.82h-4.16a3.895 3.895 0 0 0-.287-1.683 4.413 4.413 0 0 0-5.81-2.233 4.566 4.566 0 0 0-2.881 3.857h-4.172a3.778 3.778 0 0 0-.286-1.732 4.399 4.399 0 0 0-5.798-2.232 4.553 4.553 0 0 0-2.881 3.916h-3.921l-.263-8.716 96.947.967-.478 8.167Z" fill="#FF7A00"/><path d="M309.113 546.685c-3.144 1.015-92.584-.143-95.955-2.388-1.303-.812-1.889-13.839-2.152-29.599v-.502c0-3.248-.108-6.591-.108-9.982v-1.397l1.973-46.339 59.842.597-3.587 45.909-.059 1.815-.371 9.552v.979s34.033 15.737 37.488 18.555c3.455 2.818 6.061 11.773 2.929 12.8Z" fill="#FF7A00"/><path opacity=".7" d="M309.113 546.685c-3.144 1.015-92.584-.143-95.955-2.388-1.303-.812-1.889-13.839-2.152-29.599v-.502c0-3.248-.108-6.591-.108-9.982v-1.397l1.973-46.339 59.842.597-3.587 45.909-.059 1.815-.371 9.552v.979s34.033 15.737 37.488 18.555c3.455 2.818 6.061 11.773 2.929 12.8Z" fill="#fff"/><path d="M308.144 543.27c-15.074-.561-75.92-1.421-90.85-.836-.12 0-.12.084 0 .096 14.93.883 75.776 1.253 90.85.991.311-.072.311-.251 0-.251Zm-35.504-28.381c-5.917-1.194-13.149-.359-17.775 3.796-.179.168.06.418.251.359a83.69 83.69 0 0 1 17.501-3.403.383.383 0 0 0 .023-.752Zm4.256 2.638c-5.917-1.194-13.149-.37-17.776 3.797-.179.156 0 .406.24.359a83.03 83.03 0 0 1 17.5-3.403.385.385 0 0 0 .335-.361.38.38 0 0 0-.299-.392Zm4.244 2.639c-5.918-1.194-13.15-.37-17.776 3.797-.179.155.06.406.251.346a83.862 83.862 0 0 1 17.489-3.403.37.37 0 1 0 .036-.74Z" fill="#FF7A00"/><path d="M272.64 514.889c-5.917-1.194-13.149-.359-17.775 3.796-.179.168.06.418.251.359a83.69 83.69 0 0 1 17.501-3.403.383.383 0 0 0 .023-.752Zm4.256 2.638c-5.917-1.194-13.149-.37-17.776 3.797-.179.155 0 .406.24.358a83.156 83.156 0 0 1 17.5-3.403.384.384 0 0 0 .335-.361.377.377 0 0 0-.078-.25.389.389 0 0 0-.221-.141Zm4.244 2.639c-5.918-1.194-13.15-.37-17.776 3.797-.179.155.06.406.251.346a83.862 83.862 0 0 1 17.489-3.403.37.37 0 1 0 .036-.74Z" opacity=".5" fill="#fff"/><path d="M259.443 546.673a2113.73 2113.73 0 0 1-14.046-.335c-16.939-.465-30.937-1.194-32.276-2.005-1.339-.812-1.865-13.481-2.128-28.943v-1.17h.06c7.914 5.54 35.743 24.047 48.39 32.453Z" fill="#FF7A00"/><path d="M270.62 541.586a28.832 28.832 0 0 1 7.842-8.441c7.173-4.776 17.238-4.979 19.127-4.716 1.889.262 10.818 4.453 12.456 9.157 1.638 4.705 1.697 8.812.98 9.314-.717.501-96.529-.084-97.88-1.063-1.35-.979-1.338-4.776-1.338-4.776l58.813.525Z" fill="#FF7A00"/><path opacity=".5" d="M270.62 541.586a28.832 28.832 0 0 1 7.842-8.441c7.173-4.776 17.238-4.979 19.127-4.716 1.889.262 10.818 4.453 12.456 9.157 1.638 4.705 1.697 8.812.98 9.314-.717.501-96.529-.084-97.88-1.063-1.35-.979-1.338-4.776-1.338-4.776l58.813.525Z" fill="#fff"/><path d="M215.441 532.655c5.182 0 9.383-5.517 9.383-12.322 0-6.805-4.201-12.322-9.383-12.322-5.183 0-9.384 5.517-9.384 12.322 0 6.805 4.201 12.322 9.384 12.322Z" fill="#FF7A00"/><path opacity=".5" d="M215.441 532.655c5.182 0 9.383-5.517 9.383-12.322 0-6.805-4.201-12.322-9.383-12.322-5.183 0-9.384 5.517-9.384 12.322 0 6.805 4.201 12.322 9.384 12.322Z" fill="#fff"/><path opacity=".5" d="M213.922 530.446c4.252 0 7.699-4.527 7.699-10.113 0-5.585-3.447-10.113-7.699-10.113-4.251 0-7.698 4.528-7.698 10.113 0 5.586 3.447 10.113 7.698 10.113Z" fill="#fff"/><path d="M272.641 495.653H208.22s-2.116-3.415-1.195-14.805c3.455-40.346 8.906-116.905 8.511-118.947-.645-3.355-36.531-162.742-36.531-162.742h60.057s4.447 20.143 12.468 46.363c13.066 42.59 26.968 101.228 28.689 115.472 2.296 18.973-2.39 90.111-4.853 121.895a51.009 51.009 0 0 1-2.725 12.764Z" fill="#FF7A00"/><path opacity=".4" d="M272.641 495.653H208.22s-2.116-3.415-1.195-14.805c3.455-40.346 8.906-116.905 8.511-118.947-.645-3.355-36.531-162.742-36.531-162.742h60.057s4.447 20.143 12.468 46.363c13.066 42.59 26.968 101.228 28.689 115.472 2.296 18.973-2.39 90.111-4.853 121.895a51.009 51.009 0 0 1-2.725 12.764Z" fill="#fff"/><path opacity=".1" d="M269.796 484.668c-9.838-.203-7.005-.286-16.844-.382-4.781 0-36.459-.322-40.954.43-.108 0-.108.179 0 .203 4.495.74 36.137.466 40.954.418 9.839-.095 7.006-.179 16.844-.382a.142.142 0 0 0 .143-.143.145.145 0 0 0-.143-.144Zm-45.032-132.211c-1.709-9.301-4.267-18.412-6.503-27.546a14140.192 14140.192 0 0 0-13.663-55.616c-2.295-9.266-4.594-18.531-6.898-27.796-1.195-4.669-2.331-9.349-3.526-14.006-1.195-4.657-2.486-9.098-3.586-13.707-.419-1.875-.658-.848-.108 1.54 1.1 4.776 2.188 9.552 3.323 14.328 2.264 9.48 4.531 18.957 6.802 28.429 4.527 18.842 9.097 37.675 13.712 56.5 2.295 9.449 4.598 18.885 6.909 28.31a137.908 137.908 0 0 1 2.833 13.707c.612 4.859.764 9.764.454 14.651-.502 9.838-1.422 19.665-2.163 29.491-.741 9.827-1.483.788-2.224 10.639a35518.03 35518.03 0 0 0-4.375 58.757c-.179 2.483-.359 4.967-.514 7.45 0 .836.43.932.502.132 1.721-19.367 3.586-38.961 5.057-58.351 1.47-19.391 2.94-19.713 4.411-39.02.37-4.848.789-9.695.789-14.567a73.531 73.531 0 0 0-1.232-13.325Z" fill="#000"/><path d="M213.098 365.304v-7.594l62.627-3.796v12.823l-62.627-1.433Z" fill="#FF7A00"/><path d="M242.433 342.344c3.921-10.615 30.1-12.895 35.276-4.776 6.886 10.865 7.627 40.106-.562 47.414-5.57 4.979-29.215 5.468-33.232-1.588-2.391-4.239-3.945-9.111-3.837-21.218.036-4.704-.263-12.74 2.355-19.832Z" fill="#FF7A00"/><path opacity=".7" d="M242.433 342.344c3.921-10.615 30.1-12.895 35.276-4.776 6.886 10.865 7.627 40.106-.562 47.414-5.57 4.979-29.215 5.468-33.232-1.588-2.391-4.239-3.945-9.111-3.837-21.218.036-4.704-.263-12.74 2.355-19.832Z" fill="#fff"/><path d="M247.68 384.205a84.615 84.615 0 0 0 29.061-1.432 43.837 43.837 0 0 1-29.061 1.432Zm-2.139-4.632c10.974.644 22.067.597 32.861-1.624-10.423 3.833-22.067 3.904-32.861 1.624Zm-.251-5.218c10.101.609 20.322.716 30.315-.932 1.447-.155 2.845-.549 4.292-.776-10.986 4-23.239 4.06-34.607 1.708Zm-.311-6.293c11.882.824 23.908 1.003 35.647-1.444-11.344 4.071-23.908 3.892-35.647 1.444Zm29.957-30.638a77.497 77.497 0 0 0-27.745 1.361 40.152 40.152 0 0 1 27.745-1.361Zm3.454 4.573c-10.973-.644-22.067-.597-32.861 1.624 10.424-3.844 22.067-3.904 32.861-1.624Zm.252 5.206c-10.102-.597-20.322-.704-30.316.932-1.446.167-2.845.549-4.291.776 10.985-3.988 23.238-4.06 34.607-1.708Zm1.602 5.6c-11.954-.633-24.136-.705-35.934 1.767 11.428-4.083 24.111-4.024 35.934-1.767Zm.226 4.776c-11.954-.621-24.135-.704-35.921 1.779 11.428-4.095 24.111-4.036 35.921-1.779Zm-35.778 5.313c11.835-.083 24.733 0 36.484-1.003-11.954 2.615-24.398 2.532-36.484 1.003Z" opacity=".7" fill="#FF7A00"/><path d="M258.26 268.363a264.833 264.833 0 0 1-29.885 6.842c-10.484 1.099-21.075 2.639-31.606 2.555a2.574 2.574 0 0 0-.06-.274c10.519-.609 21.039-2.233 31.511-3.451 8.367-1.134 17.62-3.451 25.976-5.146l3.992-.836c.012.095.048.203.072.31Zm1.064 3.869a264.692 264.692 0 0 1-30.447 7.009c-10.352 1.098-20.824 2.603-31.224 2.567 0-.108 0-.191-.06-.287 10.388-.656 20.788-2.232 31.081-3.45 8.367-1.123 17.62-3.451 25.988-5.146l4.542-.944c.072.024.096.096.12.251Zm1.052 3.785a269.007 269.007 0 0 1-30.985 7.164c-10.233 1.098-20.561 2.567-30.841 2.579l-.072-.323c10.268-.668 20.537-2.232 30.758-3.426 8.367-1.123 17.62-3.439 25.988-5.146l5.092-1.063c.025.07.044.142.06.215Z" fill="#FF7A00"/><path opacity=".1" d="M227.466 199.159c-3.263 25.074-13.149 87.592-19.126 129.991-10.424-46.566-28.427-126.421-29.204-129.871a.433.433 0 0 1 0-.072l48.33-.048Z" fill="#000"/><path d="M241.297 553.24h-4.602a3.79 3.79 0 0 0-.287-1.433 4.414 4.414 0 0 0-5.81-2.233 4.613 4.613 0 0 0-2.857 3.582h-4.171a4.06 4.06 0 0 0-.299-1.48 4.405 4.405 0 0 0-2.442-2.319 4.388 4.388 0 0 0-3.368.086 4.6 4.6 0 0 0-2.845 3.666h-4.184a3.852 3.852 0 0 0-.287-1.529 4.398 4.398 0 0 0-5.81-2.233 4.513 4.513 0 0 0-2.845 3.714h-4.172a4.3 4.3 0 0 0-.31-1.576 4.405 4.405 0 0 0-2.442-2.319 4.388 4.388 0 0 0-3.368.086 4.539 4.539 0 0 0-2.857 3.761h-4.172a4.013 4.013 0 0 0-.287-1.624 4.418 4.418 0 0 0-2.445-2.31 4.432 4.432 0 0 0-3.365.077 4.549 4.549 0 0 0-2.869 3.821h-4.171a3.718 3.718 0 0 0-.287-1.683 4.392 4.392 0 0 0-5.798-2.233 4.542 4.542 0 0 0-2.881 3.857h-4.184a3.761 3.761 0 0 0-.275-1.732 4.419 4.419 0 0 0-5.81-2.233c-.8.315-1.494.85-2.002 1.543a4.529 4.529 0 0 0-.866 2.374h-3.933l-.263-8.716 96.959.967-.395 8.119Z" fill="#FF7A00"/><path d="M240.867 547.544c-3.132 1.027-92.572.191-95.955-1.994-1.303-.812-1.949-13.838-2.259-29.599v-.501c-.072-3.248-.12-6.591-.144-9.982v-1.397c-.203-22.746 1.435-46.339 1.435-46.339l58.467.37-1.626 45.921-.072 1.815-.322 9.552v.979s34.092 15.618 37.559 18.423c3.467 2.806 6.049 11.749 2.917 12.752Z" fill="#FF7A00"/><path opacity=".7" d="M240.867 547.544c-3.132 1.027-92.572.191-95.955-1.994-1.303-.812-1.949-13.838-2.259-29.599v-.501c-.072-3.248-.12-6.591-.144-9.982v-1.397c-.203-22.746 1.435-46.339 1.435-46.339l58.467.37-1.626 45.921-.072 1.815-.322 9.552v.979s34.092 15.618 37.559 18.423c3.467 2.806 6.049 11.749 2.917 12.752Z" fill="#fff"/><path d="M239.91 544.07c-15.074-.502-75.92-1.194-90.85-.502-.12 0-.12.084 0 .096 14.93.836 75.788.979 90.85.657.299 0 .299-.239 0-.251Zm-36.28-28.262c-5.977-1.194-13.149-.322-17.764 3.857-.167.167.06.417.251.358a83.787 83.787 0 0 1 17.489-3.475.372.372 0 0 0 .283-.623.372.372 0 0 0-.259-.117Zm4.268 2.651c-5.977-1.194-13.15-.323-17.764 3.856-.179.167 0 .418.251.358a82.863 82.863 0 0 1 17.477-3.462.377.377 0 0 0 .233-.12.375.375 0 0 0 .102-.241.379.379 0 0 0-.299-.391Zm4.255 2.615c-5.977-1.194-13.149-.311-17.764 3.868-.179.155.06.406.251.346a82.813 82.813 0 0 1 17.477-3.462.385.385 0 0 0 .335-.361.379.379 0 0 0-.299-.391Z" fill="#FF7A00"/><path d="M203.63 515.808c-5.977-1.194-13.149-.322-17.764 3.857-.167.167.06.417.251.358a83.787 83.787 0 0 1 17.489-3.475.372.372 0 0 0 .283-.623.372.372 0 0 0-.259-.117Zm4.268 2.651c-5.977-1.194-13.15-.323-17.764 3.856-.179.167 0 .418.251.358a82.8 82.8 0 0 1 17.477-3.462.383.383 0 0 0 .036-.752Zm4.255 2.615c-5.977-1.194-13.149-.311-17.763 3.868-.18.155.06.406.251.346a82.8 82.8 0 0 1 17.477-3.462.383.383 0 0 0 .035-.752Z" opacity=".5" fill="#fff"/><path d="M202.195 542.482a29.004 29.004 0 0 1 7.842-8.442c7.173-4.776 17.238-4.979 19.127-4.716 1.888.263 10.758 4.454 12.444 9.158 1.685 4.704 1.697 8.812.98 9.313-.717.502-96.529-.084-97.868-1.063-1.338-.979-1.35-4.776-1.35-4.776l58.825.526Z" fill="#FF7A00"/><path opacity=".5" d="M202.195 542.482a29.004 29.004 0 0 1 7.842-8.442c7.173-4.776 17.238-4.979 19.127-4.716 1.888.263 10.758 4.454 12.444 9.158 1.685 4.704 1.697 8.812.98 9.313-.717.502-96.529-.084-97.868-1.063-1.338-.979-1.35-4.776-1.35-4.776l58.825.526Z" fill="#fff"/><path d="M148.94 532.655c5.183 0 9.384-5.517 9.384-12.322 0-6.805-4.201-12.322-9.384-12.322-5.182 0-9.384 5.517-9.384 12.322 0 6.805 4.202 12.322 9.384 12.322Z" fill="#FF7A00"/><path opacity=".5" d="M148.94 532.655c5.183 0 9.384-5.517 9.384-12.322 0-6.805-4.201-12.322-9.384-12.322-5.182 0-9.384 5.517-9.384 12.322 0 6.805 4.202 12.322 9.384 12.322Z" fill="#fff"/><path opacity=".5" d="M155.12 520.333c0 5.588-3.454 10.113-7.71 10.113s-7.698-4.525-7.698-10.113c0-5.588 3.442-10.113 7.698-10.113s7.71 4.525 7.71 10.113Z" fill="#fff"/><path d="M231.889 199.159s-1.195 26.089-7.172 46.757a85.68 85.68 0 0 1-1.566 5.003 97.863 97.863 0 0 0-15.732 8.072s2.391 99.77 2.51 105.955c.431 18.376-3.263 82.255-4.136 116.176a29.432 29.432 0 0 1-3.801 14.328l-60.093.239a25.283 25.283 0 0 1-5.272-18.089c3.156-38.805 12.528-105.991 12.456-112.558-.119-13.636 2.188-95.867 4.471-116.618.323-2.962-1.781-16.287-.92-23.236a141.524 141.524 0 0 1 5.726-26.005l73.529-.024Z" fill="#FF7A00"/><path opacity=".4" d="M231.889 199.159s-1.195 26.089-7.172 46.757a85.68 85.68 0 0 1-1.566 5.003 97.863 97.863 0 0 0-15.732 8.072s2.391 99.77 2.51 105.955c.431 18.376-3.263 82.255-4.136 116.176a29.432 29.432 0 0 1-3.801 14.328l-60.093.239a25.283 25.283 0 0 1-5.272-18.089c3.156-38.805 12.528-105.991 12.456-112.558-.119-13.636 2.188-95.867 4.471-116.618.323-2.962-1.781-16.287-.92-23.236a141.524 141.524 0 0 1 5.726-26.005l73.529-.024Z" fill="#fff"/><path opacity=".1" d="M199.721 483.964c-9.838-.155-7.017-.251-16.855-.298-4.782 0-36.46-.168-40.955.597-.095 0-.095.179 0 .191 4.495.728 36.137.322 40.955.25 9.838-.131 7.005-.203 16.843-.453a.145.145 0 0 0 .103-.038.142.142 0 0 0 .046-.1.14.14 0 0 0-.037-.103.146.146 0 0 0-.1-.046Z" fill="#000"/><path d="M221.979 251.576a114.995 114.995 0 0 0-18.194 8.465.201.201 0 0 0-.106.114.203.203 0 0 0 .274.256c6.132-2.626 12.384-5.146 18.361-8.107a.406.406 0 0 0-.335-.728Zm1.997-42.017c0-.215-.383-.263-.383 0 0 7.271-.418 13.671-1.028 20.465-.287 3.152-2.833 20.585-8.368 19.319-.908-.215-1.374-1.122-1.53-2.495a22.22 22.22 0 0 1 .729-5.35c.61-3.653 1.1-7.307 1.411-10.996a99.88 99.88 0 0 0-.215-20.621.176.176 0 0 0-.053-.126.176.176 0 0 0-.253 0 .176.176 0 0 0-.053.126 188.931 188.931 0 0 1-1.661 28.465c-.694 4.526-2.977 11.355 1.769 12.06 4.746.704 7.961-10.746 8.559-13.851a104.647 104.647 0 0 0 1.076-26.996Z" fill="#263238"/><path d="M214.413 249.773a29.856 29.856 0 0 0-1.196 3.582 8.233 8.233 0 0 0-.502 2.973c0 .191.275.215.371.084a10.317 10.317 0 0 0 1.279-2.89c.418-1.122.86-2.233 1.195-3.355a.61.61 0 0 0-1.147-.394Z" fill="#263238"/><path opacity=".1" d="M165.186 202.228c-1.745 7.331-3.443 14.674-4.782 22.077-.43 2.77-1.195 5.528-.729 8.358l.311 2.806c.382 3.773.681 7.534.956 11.307l-1.195 62.972c-1.124 57.395-5.977 95.579-11.452 152.76a98.84 98.84 0 0 0-.67 15.725 98.821 98.821 0 0 1 .431-15.737c.741-9.683 3.072-37.014 3.933-47.103 4.948-42.029 6.622-124.988 8.367-168.641 0 .131-.86-11.235-.86-11.224l-.263-2.817c-.419-2.806.394-5.696.86-8.454 1.495-7.391 3.312-14.71 5.165-22.005l-.072-.024Z" fill="#000"/><path d="M147.96 365.304v-7.594l62.639-3.796v12.823l-62.639-1.433Z" fill="#FF7A00"/><path d="M177.833 342.475c1.746-11.152 27.674-12.477 31.954-4.048 5.678 11.188 5.056 40.441-2.594 47.331-5.212 4.692-27.208 4.405-29.682-3.236-1.758-5.433-1.829-9.206-1.196-21.301.142-6.273.649-12.532 1.518-18.746Z" fill="#FF7A00"/><path opacity=".7" d="M177.833 342.475c1.746-11.152 27.674-12.477 31.954-4.048 5.678 11.188 5.056 40.441-2.594 47.331-5.212 4.692-27.208 4.405-29.682-3.236-1.758-5.433-1.829-9.206-1.196-21.301.142-6.273.649-12.532 1.518-18.746Z" fill="#fff"/><path d="M180.846 383.465a67.946 67.946 0 0 0 26.072 0 35.438 35.438 0 0 1-26.072 0Zm-1.71-4.728c9.803 1.194 19.712 1.671 29.491 0-9.42 3.319-20.011 2.806-29.491 0Zm0-5.218c9.014 1.099 18.158 1.707 27.184.561 1.315-.095 2.57-.406 3.873-.561-9.934 3.439-21.051 2.901-31.081 0h.024Zm0-6.304c9.265 1.194 18.684 2.006 27.997.883 1.338-.095 2.641-.406 3.98-.573-10.244 3.498-21.696 2.71-31.977-.31Zm28.176-29.134a62.472 62.472 0 0 0-24.901 0 32.534 32.534 0 0 1 24.901 0Zm2.881 4.74c-9.802-1.194-19.7-1.671-29.479 0 9.408-3.319 20.011-2.806 29.479 0Zm0 5.218c-9.002-1.098-18.146-1.707-27.172-.561-1.315.095-2.57.406-3.885.561 9.946-3.439 21.063-2.901 31.081 0h-.024Zm1.183 5.66c-10.687-1.194-21.589-1.887-32.276 0 10.341-3.511 21.828-2.83 32.276 0Zm0 4.788c-10.687-1.194-21.589-1.887-32.276 0 10.341-3.511 21.828-2.83 32.276 0Zm-32.24 3.558c10.603.489 22.139 1.194 32.706.788-10.758 2.017-21.995 1.325-32.706-.788Z" opacity=".7" fill="#FF7A00"/><path d="M207.778 276.399v.275a210.355 210.355 0 0 1-27.614 3.056c-9.492-.25-19.127-.071-28.511-1.576a1.576 1.576 0 0 1 0-.238c9.444.764 19.007.501 28.487.632 7.495 0 15.863-1.194 23.394-1.779l4.244-.37Zm.108 4.275a209.946 209.946 0 0 1-27.746 3.068c-9.563-.239-19.246-.071-28.689-1.6a1.286 1.286 0 0 1 0-.215c9.563.776 19.126.514 28.689.645 7.495 0 15.863-1.194 23.394-1.791l4.328-.37c.002.088.01.176.024.263Zm.095 3.999a213.65 213.65 0 0 1-27.841 3.081c-9.563-.251-19.365-.072-28.857-1.636a1.286 1.286 0 0 1 0-.215c9.563.812 19.234.538 28.833.669 7.495 0 15.863-1.194 23.394-1.791l4.423-.37c.009.088.025.176.048.262Zm35.444-71.031h-89.357a14.816 14.816 0 0 1-1.099-10.471c4.674-20.561 11.786-64.727 28.594-81.717 9.121-9.23 33.471-5.421 37.763-1.063 13.484 13.767 24.709 75.843 26.454 83.58.705 3.033-2.355 9.671-2.355 9.671Z" fill="#FF7A00"/><path d="M243.425 213.642h-89.357a14.816 14.816 0 0 1-1.099-10.471c4.674-20.561 11.786-64.727 28.594-81.717 9.121-9.23 33.471-5.421 37.763-1.063 13.484 13.767 24.709 75.843 26.454 83.58.705 3.033-2.355 9.671-2.355 9.671Z" fill="#fff" opacity=".4"/><path d="m198.358 160.115 30.052.036-3.921-21.587-30.052-.048 3.921 21.599Z" fill="#FF7A00"/><path opacity=".2" d="m198.358 160.115 30.052.036-3.921-21.587-30.052-.048 3.921 21.599Z" fill="#fff"/><path opacity=".4" d="m198.358 160.115 3.204.012-3.909-21.599-3.216-.012 3.921 21.599Z" fill="#fff"/><path opacity=".1" d="M204.706 157.644h-.777l-3.036-16.657h.789l3.024 16.657Zm1.9 0h-.777l-3.024-16.657h.777l3.024 16.657Zm1.913 0h-.789l-3.024-16.657h.789l3.024 16.657Zm12.552-13.015a1.67 1.67 0 0 0 1.542 1.397 1.08 1.08 0 0 0 .864-.434 1.09 1.09 0 0 0 .176-.951 1.672 1.672 0 0 0-1.542-1.397 1.094 1.094 0 0 0-.864.435 1.092 1.092 0 0 0-.176.95Zm.825 4.621a1.705 1.705 0 0 0 1.542 1.397 1.103 1.103 0 0 0 1.07-.888 1.098 1.098 0 0 0-.018-.497 1.698 1.698 0 0 0-1.554-1.397 1.067 1.067 0 0 0-.871.43 1.076 1.076 0 0 0-.169.955Zm.824 4.525a1.723 1.723 0 0 0 1.554 1.397 1.084 1.084 0 0 0 1.069-.897c.029-.167.02-.338-.029-.5a1.708 1.708 0 0 0-1.554-1.397 1.104 1.104 0 0 0-.864.443 1.084 1.084 0 0 0-.199.457c-.031.165-.023.335.023.497Zm-5.69-9.158a1.698 1.698 0 0 0 1.554 1.397 1.08 1.08 0 0 0 .864-.434 1.096 1.096 0 0 0 .176-.951 1.693 1.693 0 0 0-1.554-1.397 1.094 1.094 0 0 0-.864.435 1.092 1.092 0 0 0-.176.95Zm.825 4.633a1.705 1.705 0 0 0 1.554 1.397 1.084 1.084 0 0 0 1.069-.898 1.095 1.095 0 0 0-.029-.499 1.693 1.693 0 0 0-1.542-1.397 1.106 1.106 0 0 0-.872.438 1.105 1.105 0 0 0-.18.959Zm.837 4.501a1.698 1.698 0 0 0 1.542 1.409 1.106 1.106 0 0 0 .873-.438 1.105 1.105 0 0 0 .179-.959 1.708 1.708 0 0 0-1.554-1.397 1.094 1.094 0 0 0-.864.435 1.092 1.092 0 0 0-.176.95Zm-5.69-9.134a1.67 1.67 0 0 0 1.542 1.397 1.08 1.08 0 0 0 .864-.434 1.096 1.096 0 0 0 .176-.951 1.672 1.672 0 0 0-1.542-1.397 1.094 1.094 0 0 0-.864.435 1.092 1.092 0 0 0-.176.95Zm.825 4.633a1.705 1.705 0 0 0 1.542 1.397 1.099 1.099 0 0 0 1.052-1.397 1.719 1.719 0 0 0-1.554-1.397 1.088 1.088 0 0 0-1.069.898c-.03.166-.02.337.029.499Zm.825 4.501a1.72 1.72 0 0 0 1.554 1.409 1.084 1.084 0 0 0 1.068-.897c.03-.167.02-.338-.028-.5a1.712 1.712 0 0 0-1.542-1.397 1.113 1.113 0 0 0-.867.435 1.1 1.1 0 0 0-.185.95Zm-5.691-9.134a1.698 1.698 0 0 0 1.554 1.397 1.088 1.088 0 0 0 1.064-.889 1.08 1.08 0 0 0-.024-.496 1.697 1.697 0 0 0-1.53-1.349 1.093 1.093 0 0 0-.857.411 1.09 1.09 0 0 0-.207.926Zm.825 4.633a1.705 1.705 0 0 0 1.554 1.397 1.09 1.09 0 0 0 1.076-1.397 1.693 1.693 0 0 0-1.542-1.397 1.097 1.097 0 0 0-1.088 1.397Zm.837 4.501a1.698 1.698 0 0 0 1.542 1.409 1.106 1.106 0 0 0 .872-.438 1.102 1.102 0 0 0 .18-.959 1.708 1.708 0 0 0-1.554-1.397 1.094 1.094 0 0 0-.864.435 1.092 1.092 0 0 0-.176.95Z" fill="#000"/><path d="M198.563 183.973c2.679-.065 4.796-2.405 4.728-5.227-.069-2.821-2.297-5.056-4.976-4.991-2.68.065-4.797 2.405-4.728 5.226.068 2.822 2.296 5.057 4.976 4.992Z" fill="#FF7A00"/><path opacity=".1" d="M201.753 178.79a3.335 3.335 0 1 1-6.427-1.343 3.335 3.335 0 0 1 3.02-2.084 3.41 3.41 0 0 1 2.414 1.008 3.424 3.424 0 0 1 .993 2.419Z" fill="#000"/><path d="M203.235 195.255a4.845 4.845 0 0 1-3.066 4.363 4.867 4.867 0 0 1-2.776.238 4.858 4.858 0 0 1-3.765-3.779 4.844 4.844 0 0 1 1.987-4.948 4.854 4.854 0 0 1 2.647-.865 4.99 4.99 0 0 1 3.522 1.467 4.98 4.98 0 0 1 1.451 3.524Z" fill="#FF7A00"/><path opacity=".1" d="M201.717 195.291a3.333 3.333 0 0 1-4.017 3.164 3.333 3.333 0 0 1-2.41-4.507 3.335 3.335 0 0 1 3.02-2.084 3.418 3.418 0 0 1 3.407 3.427Z" fill="#000"/><path d="M231.805 182.987c2.404-.3 4.068-2.814 3.717-5.615-.351-2.8-2.585-4.827-4.989-4.526-2.404.301-4.069 2.815-3.717 5.615.351 2.801 2.584 4.827 4.989 4.526Z" fill="#FF7A00"/><path opacity=".1" d="M234.137 177.56a3.047 3.047 0 0 1-5.098 2.17 3.036 3.036 0 0 1-.854-3.175 3.052 3.052 0 0 1 2.533-2.1 3.288 3.288 0 0 1 3.419 3.105Z" fill="#000"/><path d="M237.161 193.81c.358 2.806-1.315 5.313-3.718 5.612-2.403.298-4.626-1.719-4.985-4.525s1.315-5.314 3.718-5.624c2.403-.311 4.638 1.767 4.985 4.537Z" fill="#FF7A00"/><path opacity=".1" d="M235.798 193.977a3.048 3.048 0 1 1-4.994-2.425 3.052 3.052 0 0 1 1.575-.679 3.29 3.29 0 0 1 2.348.851 3.28 3.28 0 0 1 1.071 2.253Z" fill="#000"/><path d="M169.943 191.53a18.04 18.04 0 0 1-10.878-3.2c-6.551-4.776-6.049-13.898-5.977-14.328a2.391 2.391 0 0 1 4.722.298s-.347 6.913 4.1 10.173c7.723 5.648 23.311-.251 35.324-7.653a2.394 2.394 0 0 1 2.962.943 2.386 2.386 0 0 1-.475 3.068c-6.121 3.797-18.804 10.699-29.778 10.699Zm73.434-6.102a5.085 5.085 0 0 1-1.327.502 6.33 6.33 0 0 1-1.661.203c-3.897 0-8.775-2.854-11.142-7.021a2.396 2.396 0 0 1-.44-1.911 2.386 2.386 0 0 1 2.094-1.908 2.383 2.383 0 0 1 1.865.613c.25.229.448.507.582.818a9.846 9.846 0 0 0 2.709 2.952 9.891 9.891 0 0 0 3.662 1.633c.431.117.885.117 1.315 0h.072c.095-.155.227-1.194-.861-3.415-.191-.86-.884-3.761-1.088-4.633.168-.585 2.798.382 3.861 2.185 3.742 6.281 1.841 9.146.359 9.982Zm2.51 16.012a4.768 4.768 0 0 1-.561.25 7.682 7.682 0 0 1-2.857.502 14.529 14.529 0 0 1-11.715-6.758 2.388 2.388 0 0 1 2.671-3.32 2.393 2.393 0 0 1 1.441.932c1.936 3.391 7.029 5.098 8.87 4.143a1.014 1.014 0 0 0 .514-.8 6.547 6.547 0 0 0-.634-3.069l-.813-3.856c.144-.705 2.594.621 3.587 2.639 2.761 5.552 1.123 8.489-.503 9.337Z" fill="#DBDBDB"/><path d="M169.86 208.353a23.933 23.933 0 0 1-12.863-3.439c-6.909-4.286-6.969-12.322-6.969-12.656a2.388 2.388 0 0 1 2.391-2.388 2.39 2.39 0 0 1 2.391 2.388c0 .227.095 5.767 4.781 8.656 12.421 7.725 30.423-2.973 37.596-7.928a2.39 2.39 0 0 1 3.422 2.394 2.391 2.391 0 0 1-.733 1.487c-12.814 8.799-22.7 11.486-30.016 11.486Z" fill="#DBDBDB"/><path d="M245.493 220.257h-93.098l.992-6.627h90.815l1.291 6.627Z" fill="#263238"/><path d="M227.944 211.624h-19.353v10.639h19.353v-10.639Z" fill="#A6A6A6"/><path d="m220.103 211.613-10.663 10.65h-.849v-4.549l6.108-6.101h5.404Zm7.842 8.584v2.066h-2.08l2.08-2.066Zm-3.909-8.584-10.652 10.65h-2.701l10.651-10.65h2.702Zm3.908 2.22v.681l-7.758 7.749h-.693l8.451-8.43Zm-16.305-2.22-3.048 3.044v-.668l2.379-2.376h.669Z" fill="#DBDBDB"/><path d="M173.207 131.34c-7.567 16.573-16.652 31.641-25.295 54.721-9.647 25.755-11.237 52.93-12.133 55.748-2.308 7.247 34.726 9.038 35.718 3.916.634-3.283 2.128-29.062 4.997-50.757 3.048-23.104 10.663-45.181 12.623-62.816 2.033-18.28-10.328-13.074-15.91-.812Z" fill="#D3766A"/><path d="M162.413 263.193c1.195-1.934 2.175-1.337 2.689 2.627.514 3.964-.813 20.095 4.854 20.083 5.666-.012 7.232-22.793 5.869-29.336-1.363-6.543-5.869-16.573-5.869-16.573-1.196 4.31-5.093 14.65-7.543 23.199Z" fill="#37474F"/><path d="M136.938 234.752c-2.904 12.442-7.28 27.749-2.976 41.516a7.164 7.164 0 0 0 2.69 3.821c1.817 6.208 5.295 7.164 5.295 7.164 3.467 5.253 7.173 5.79 7.173 5.79s2.211 7.26 6.825 6.651c5.176-.669 1.052-10.746 2.176-17.647 2.57-15.845 10.651-37.671 11.846-42.16l-33.029-5.135Z" fill="#37474F"/><path d="M149.059 263.599c-.802 4.631-1.29 9.31-1.458 14.006.139 5.146.662 10.275 1.566 15.343a.128.128 0 0 1-.027.084.125.125 0 0 1-.074.049.133.133 0 0 1-.15-.073 54.733 54.733 0 0 1-.072-29.444c.12-.215.299-.203.215.035Zm-9.3-2.937c-.394 4.585-1.028 12.657 2.331 26.602h-.083a48.904 48.904 0 0 1-2.511-26.626c.096-.286.287-.286.263.024Zm-5.044-1.492c-.371 7.832.394 12.811 1.972 20.883 0 0-.072.071-.084 0-2.761-8.979-2.749-12.549-2.163-20.955.012-.263.275-.227.275.072Z" fill="#263238"/><path d="m134.392 237.14 37.62 7.164s5.116-6.328 5.403-10.746c.897-13.862 2.128-40.787 2.893-46.363 1.96-14.328 10.065-46.673 9.563-59.174-.502-12.502-9.121-10.352-16.234 1.194-9.192 15.008-22.354 39.7-27.41 53.73-2.08 5.79-10.065 28.166-13.436 41.348-1.339 5.074 1.601 12.847 1.601 12.847Z" fill="#FF7A00"/><path opacity=".4" d="m134.392 237.14 37.62 7.164s5.116-6.328 5.403-10.746c.897-13.862 2.128-40.787 2.893-46.363 1.96-14.328 10.065-46.673 9.563-59.174-.502-12.502-9.121-10.352-16.234 1.194-9.192 15.008-22.354 39.7-27.41 53.73-2.08 5.79-10.065 28.166-13.436 41.348-1.339 5.074 1.601 12.847 1.601 12.847Z" fill="#fff"/><path opacity=".1" d="M154.929 232.257c-2.893-.525-5.762-1.111-8.643-1.708-1.386-.274-2.773-.549-4.136-.883-1.362-.334-3.024-.597-4.47-1.051a.083.083 0 0 1-.039-.124.085.085 0 0 1 .039-.031c1.518.084 3.048.406 4.554.597 1.506.191 2.785.418 4.172.645 2.905.465 5.798.931 8.691 1.468 5.785 1.075 11.523 2.305 17.249 3.582.029 0 .056.012.076.032.021.02.032.047.032.076a.105.105 0 0 1-.032.076.107.107 0 0 1-.076.031c-5.833-.776-11.631-1.659-17.417-2.71Z" fill="#000"/><path d="m181.766 187.637-1.112 4.525-33.89-4.776 1.877-7.653 33.125 7.904Z" fill="#FF7A00"/><path d="M164.923 199.147c-3.885 5.755-19.832 3.296-21.721-2.388-2.522-7.474 1.315-25.074 7.268-28.19 4.053-2.161 18.23 1.003 19.581 5.803.825 2.865 1.028 5.97-.801 13.205-.729 2.89-1.721 7.726-4.327 11.57Z" fill="#FF7A00"/><path opacity=".7" d="M164.923 199.147c-3.885 5.755-19.832 3.296-21.721-2.388-2.522-7.474 1.315-25.074 7.268-28.19 4.053-2.161 18.23 1.003 19.581 5.803.825 2.865 1.028 5.97-.801 13.205-.729 2.89-1.721 7.726-4.327 11.57Z" fill="#fff"/><path d="M167.923 173.416a73.89 73.89 0 0 0-17.536-3.391 23.55 23.55 0 0 1 17.536 3.391Zm.598 3.081a119.893 119.893 0 0 0-19.844-3.833 31.72 31.72 0 0 1 19.844 3.833Zm-.61 3.14a119.174 119.174 0 0 0-20.895-4.036 34.105 34.105 0 0 1 20.895 4.036Zm-.741 3.797c-7.173-1.922-14.118-3.761-21.517-4.346 7.339-1.099 15.002.883 21.517 4.346Zm-22.342 13.898a68.05 68.05 0 0 0 16.736 3.236 21.543 21.543 0 0 1-16.736-3.236Zm-1.399-3.224a121.197 121.197 0 0 0 19.844 3.821 31.801 31.801 0 0 1-19.844-3.821Zm.61-3.152a118.058 118.058 0 0 0 20.896 4.036 34.115 34.115 0 0 1-20.896-4.036Zm-.131-3.57c7.172 1.827 14.273 3.582 21.684 4.191-7.387 1.099-15.098-.824-21.684-4.191Zm.561-2.877c7.173 1.826 14.274 3.582 21.685 4.179-7.387 1.098-15.098-.812-21.685-4.179Zm22.103 2.042c-7.399-1.409-14.536-3.212-21.912-4.776a53.16 53.16 0 0 1 21.912 4.776Z" opacity=".7" fill="#FF7A00"/><path d="M172.011 244.28c2.595-3.223 5.057-7.044 5.141-11.283l.621-12.728c.431-8.489.969-16.967 1.518-25.444.156-2.09.574-7.51.789-9.552 1.375-8.621 3.802-19.522 5.487-28.178.885-4.156 1.722-8.358 2.642-12.466-.645 4.191-1.375 8.358-2.068 12.573-1.434 8.704-3.586 19.582-4.949 28.19-.191 1.982-.574 7.439-.717 9.552l-1.793 25.421-.933 12.668c-.286 4.346-2.892 8.131-5.726 11.247h-.012Z" fill="#263238"/><path d="M189.835 148.581a23.876 23.876 0 0 1-4.196 9.636 41.068 41.068 0 0 1 4.196-9.636Z" fill="#263238"/><path d="m176.327 147.769-10.89-3.068 2.857-6.436 10.89 3.069-2.857 6.435Z" fill="#FF7A00"/><path opacity=".1" d="m176.327 147.769-10.89-3.068 2.857-6.436 10.89 3.069-2.857 6.435Z" fill="#000"/><path d="m175.131 147.423-10.89-3.068 2.857-6.436 10.89 3.069-2.857 6.435Z" fill="#FF7A00"/><path d="M211.149 125.119c-4.782.848-12.528-3.976-15.397-9.97-.191-.406.646-4.573 1.434-9.695.467-3.104.909-6.567 1.088-9.767 0-.645 19.784 5.97 19.784 5.97a51.028 51.028 0 0 0-2.618 12.167c-.013.439.011.878.072 1.313v.215c.287 2.52.239 8.931-4.363 9.767Z" fill="#D3766A"/><path d="M218.058 101.657a52.148 52.148 0 0 0-2.594 11.677c-5.594-.811-14.811-3.653-17.68-12.286.216-1.79.395-3.582.479-5.36.035-.658 19.795 5.969 19.795 5.969Z" fill="#263238"/><path d="M193.66 72.918c-2.128 7.164 1.758 27.653 6.862 32.238 7.376 6.602 19.401 7.164 25.008-1.696 5.415-8.585-.12-35.247-5.81-39.402-8.368-6.09-22.916-1.672-26.06 8.86Z" fill="#D3766A"/><path d="M212.01 86.29s-.096.084-.084.144c.239 1.385.299 3.008-.896 3.653v.084c1.53-.442 1.386-2.603.98-3.88Z" fill="#263238"/><path d="M210.551 85.025c-2.271.155-1.781 4.668.323 4.525 2.104-.143 1.542-4.668-.323-4.525Zm9.647.095s.108 0 .12.12c.107 1.397.454 2.985 1.781 3.32v.07c-1.578-.047-2.032-2.16-1.901-3.51Z" fill="#263238"/><path d="M221.286 83.58c2.235-.418 2.893 4.072.825 4.454-2.068.382-2.702-4.168-.825-4.454Zm-12.612-.215c.614-.106 1.221-.25 1.817-.43a2.952 2.952 0 0 0 1.769-.8.966.966 0 0 0 0-1.194 2.387 2.387 0 0 0-2.39-.49c-.859.15-1.63.615-2.164 1.302a1.013 1.013 0 0 0 .381 1.528c.183.086.388.115.587.084Zm14.321-2.173c-.619.068-1.242.1-1.865.096a2.918 2.918 0 0 1-1.912-.263.939.939 0 0 1-.299-1.194 2.389 2.389 0 0 1 2.128-1.194 3.46 3.46 0 0 1 2.391.62 1.025 1.025 0 0 1-.443 1.935ZM212.799 94.54a4.774 4.774 0 0 0 3.407 1.78c.58.048 1.163.011 1.733-.108.11-.012.218-.036.323-.071l.299-.084a.35.35 0 0 0 .251-.346.572.572 0 0 0 0-.143v-.12c-.096-1.086-.371-2.71-.371-2.71.418.155 2.522.836 2.391.286a71.581 71.581 0 0 0-3.407-14.22.134.134 0 0 0-.048-.048.134.134 0 0 0-.131 0 .126.126 0 0 0-.048.048c.574 4.477 1.924 8.824 2.57 13.313a8.69 8.69 0 0 0-2.319-.442c-.156.06.598 3.14.598 3.582a6.642 6.642 0 0 1-5.105-1.003c-.143.072-.239.18-.143.287Z" fill="#263238"/><path d="M217.198 95.735a5.706 5.706 0 0 1-2.068 1.994 2.6 2.6 0 0 1-1.543.263c-1.195-.18-1.291-1.195-1.195-2.09.061-.479.181-.948.359-1.397a7.357 7.357 0 0 0 4.447 1.23Z" fill="#263238"/><path d="M215.165 97.729a2.595 2.595 0 0 1-1.542.262c-1.195-.179-1.291-1.194-1.195-2.09a2.642 2.642 0 0 1 2.737 1.828Z" fill="#FF9ABB"/><path d="M194.485 90.434c3.096.609 5.224-3.165 5.858-5.11.633-1.947-1.53-11.021-.275-13.959 1.255-2.937 4.303-4.776 6.849-4.203 2.547.574 5.977 2.257 7.842 1.947 1.865-.31 2.056-3.355 3.335-3.45 2.822-.216 6.157 5.42 6.898 8.476 0 0-.837-13.134-14.429-13.313-13.269-.179-16.831 9.182-17.68 13.242-1.673 7.76 1.602 16.37 1.602 16.37Z" fill="#263238"/><path d="M199.685 91.843s-4.781-6.532-7.806-4.776c-3.024 1.755.777 11.27 4.352 12.5a3.586 3.586 0 0 0 4.781-2.065l-1.327-5.66Z" fill="#D3766A"/><path d="M193.027 89.765c-.06 0-.072.072 0 .095 2.51.932 3.885 3.2 4.865 5.564a1.994 1.994 0 0 0-2.237-.865 1.998 1.998 0 0 0-.752.4c-.071 0 0 .143.072.131a2.214 2.214 0 0 1 2.451.705 10.2 10.2 0 0 1 1.195 1.946c.132.215.526.083.431-.167-.036-3.248-2.618-7.582-6.025-7.81Z" fill="#263238"/><path d="M194.76 115.137s0-7.976.275-8.465c.275-.49 11.416 7.164 12.456 7.57 1.04.406 3.144 8.644 3.144 8.644s1.375-7.713 1.769-7.987a42.096 42.096 0 0 1 4.076-2.95c.395 0-.561 8.179-.645 9.373-.084 1.194-.502 3.761-4.411 4.191a16.663 16.663 0 0 1-10.026-2.473 16.635 16.635 0 0 1-6.638-7.903Z" fill="#FF7A00"/><path opacity=".2" d="M194.76 115.137s0-7.976.275-8.465c.275-.49 11.416 7.164 12.456 7.57 1.04.406 3.144 8.644 3.144 8.644s1.375-7.713 1.769-7.987a42.096 42.096 0 0 1 4.076-2.95c.395 0-.561 8.179-.645 9.373-.084 1.194-.502 3.761-4.411 4.191a16.663 16.663 0 0 1-10.026-2.473 16.635 16.635 0 0 1-6.638-7.903Z" fill="#000"/><path d="m220.258 117.716-.49 5.027c-.323 3.236-11.87 4.275-17.931 3.678-6.061-.597-17.142-3.869-16.819-7.093l.502-5.026c.119-1.194 1.637-4.144 17.763-2.556s17.095 4.753 16.975 5.97Z" fill="#FF7A00"/><path opacity=".2" d="m220.258 117.716-.49 5.027c-.323 3.236-11.87 4.275-17.931 3.678-6.061-.597-17.142-3.869-16.819-7.093l.502-5.026c.119-1.194 1.637-4.144 17.763-2.556s17.095 4.753 16.975 5.97Z" fill="#fff"/><path opacity=".2" d="M220.103 117.681c-.395 2.555-6.79 3.307-8.535 3.582a40.447 40.447 0 0 1-18.171-1.791 22.047 22.047 0 0 1-6.359-2.973 2.794 2.794 0 0 1-1.327-2.15c0 1.6 2.391 2.735 3.419 3.224a42.576 42.576 0 0 0 8.774 2.722 43.613 43.613 0 0 0 13.652.657c1.745-.191 8.116-.764 8.547-3.224v-.047Zm-3.539 4.991c0 .513-.37.907-.705.871-.335-.036-.586-.477-.526-.991.06-.513.359-.895.705-.859.347.035.574.477.526.979Z" fill="#000"/><path d="M216.301 122.648c0 .465-.299.823-.562.8-.263-.024-.454-.43-.406-.896.048-.466.299-.824.574-.8.275.024.442.43.394.896Z" fill="#263238"/><path opacity=".2" d="M189.488 120.857a.85.85 0 0 1 .825-.848.84.84 0 0 1 .633 1.003.852.852 0 0 1-.824.848.827.827 0 0 1-.526-.37.821.821 0 0 1-.117-.306.818.818 0 0 1 .009-.327Z" fill="#000"/><path d="M189.787 120.892c0-.465.347-.823.669-.788.323.036.538.43.49.908-.047.477-.334.812-.657.788-.323-.024-.586-.442-.502-.908Z" fill="#263238"/><path opacity=".2" d="M218.776 121.955c0 .513-.359.907-.706.872-.346-.036-.573-.478-.526-.991.048-.514.371-.896.706-.86.334.036.574.478.526.979Z" fill="#000"/><path d="M218.525 121.931c0 .478-.299.824-.574.8-.275-.024-.454-.43-.407-.895.048-.466.299-.824.574-.8.275.024.454.43.407.895Z" fill="#263238"/><path opacity=".2" d="m188.902 119.472-.155 1.623a10.952 10.952 0 0 1-3.586-2.495l.167-1.743a8.795 8.795 0 0 0 3.574 2.615Z" fill="#000"/><path d="m188.903 119.472-.12 1.289a8.553 8.553 0 0 1-3.479-2.388l.132-1.337a8.827 8.827 0 0 0 3.467 2.436Z" fill="#263238"/><path opacity=".2" d="M189.835 122.218c1.088.286 1.638-.8 1.351-2.042.145.255.223.543.227.836.012.119.012.239 0 .358-.167.931-.968 1.325-1.566.848h-.012Z" fill="#000"/><path d="M187.312 112.761a2.247 2.247 0 0 0-.848 1.194c-.144 1.278 2.175 2.281 2.94 2.663 1.65.776 3.371 1.361 5.045 2.03-2.056-.43-6.575-1.696-7.902-3.654-.633-1.003 0-1.803.765-2.28v.047Z" fill="#fff"/><path d="M241.034 90.302a6.106 6.106 0 0 1-.502 2.161c-.06.132-.132.251-.191.382a1.37 1.37 0 0 0-.108.168l-.06.071c-.31.52-.768.935-1.315 1.194-.143.07-.296.118-.454.143h-.454a1.306 1.306 0 0 1-.431-.095v-.334c.17-1.059.254-2.129.251-3.2a28.584 28.584 0 0 0-.251-4.227 3.554 3.554 0 0 0-.071-.513c.272-.113.566-.162.86-.144.112-.011.224-.011.335 0h.096c.181.052.357.12.526.203.45.273.824.655 1.088 1.11a.226.226 0 0 1 .059.12c.057.093.109.188.156.287.073.159.137.323.191.49.233.703.326 1.445.275 2.184Z" fill="#37474F"/><path d="M240.951 90.29a6.115 6.115 0 0 1-.586 2.46s-.084.167-.12.25l-.059.072a2.477 2.477 0 0 1-1.315 1.194 1.38 1.38 0 0 1-.443.072h-.095a1.543 1.543 0 0 1-.753-.287 20.05 20.05 0 0 0 .251-3.2c.004-1.434-.1-2.867-.311-4.286a1.77 1.77 0 0 1 1.195-.514c.17.009.336.05.49.12.477.238.86.63 1.088 1.11a.227.227 0 0 1 .06.12c.063.114.115.234.155.358.092.221.168.448.227.68a6.96 6.96 0 0 1 .216 1.851Z" fill="#455A64"/><path d="M240.604 92.165a2.363 2.363 0 0 1-.072.286 8.43 8.43 0 0 1-.956 2.269 5.294 5.294 0 0 1-2.391 2.233h-.347c.295-.857.523-1.735.682-2.627v-.334c.169-1.059.253-2.129.251-3.2a28.584 28.584 0 0 0-.251-4.227 3.698 3.698 0 0 0-.072-.513 24.37 24.37 0 0 0-.622-2.878v-.203c.276.037.543.122.789.25a.108.108 0 0 1 .072 0 .205.205 0 0 1 .084 0h.083a5.22 5.22 0 0 1 2.152 2.389c.043.072.079.148.108.227.347.726.589 1.498.717 2.292v.263c.083.609.111 1.224.084 1.839a9.525 9.525 0 0 1-.311 1.934Z" fill="#FF7A00"/><path opacity=".1" d="M240.604 92.165a2.363 2.363 0 0 1-.072.286 8.43 8.43 0 0 1-.956 2.269 5.294 5.294 0 0 1-2.391 2.233h-.347c.295-.857.523-1.735.682-2.627v-.334c.169-1.059.253-2.129.251-3.2a28.584 28.584 0 0 0-.251-4.227 3.698 3.698 0 0 0-.072-.513 24.37 24.37 0 0 0-.622-2.878v-.203c.276.037.543.122.789.25a.108.108 0 0 1 .072 0 .205.205 0 0 1 .084 0h.083a5.22 5.22 0 0 1 2.152 2.389c.043.072.079.148.108.227.347.726.589 1.498.717 2.292v.263c.083.609.111 1.224.084 1.839a9.525 9.525 0 0 1-.311 1.934Z" fill="#000"/><path d="M240.735 90.29a10.761 10.761 0 0 1-.37 2.472.196.196 0 0 1 0 .083 9.044 9.044 0 0 1-.765 1.887 4.248 4.248 0 0 1-2.391 2.233.168.168 0 0 1-.108 0h-.215c.279-.862.491-1.745.634-2.64v-.333c.169-1.059.253-2.129.251-3.2a28.584 28.584 0 0 0-.251-4.227 3.7 3.7 0 0 0-.072-.513 24.364 24.364 0 0 0-.622-2.878h.192c.19.008.379.04.561.095h.168a4.15 4.15 0 0 1 2.152 2.388c.043.073.079.148.107.227.241.58.417 1.185.526 1.803v.072c.168.833.236 1.682.203 2.531Z" fill="#FF7A00"/><path d="M238.392 94.326v.072a12.196 12.196 0 0 1-.956 1.934 7.17 7.17 0 0 1-.466.693l-.24.31a1.02 1.02 0 0 0 .084-.275 17.54 17.54 0 0 0 .705-2.734v-.334c.17-1.059.254-2.129.251-3.2a28.585 28.585 0 0 0-.251-4.227 3.554 3.554 0 0 0-.071-.513 24.368 24.368 0 0 0-.622-2.878v-.203c-.119-.43-.263-.836-.406-1.194a6.78 6.78 0 0 1 1.195 1.493s.167.286.251.418c.054.086.098.178.132.274.31.641.55 1.314.717 2.006v.084a13.49 13.49 0 0 1 .442 4.167 12.94 12.94 0 0 1-.765 4.107Z" fill="#37474F"/><path d="M238.297 94.326v.107c-.228.66-.512 1.3-.849 1.91a7.16 7.16 0 0 1-.407.67s-.239.334-.358.477v-.143c.04-.088.068-.18.084-.275.325-.893.576-1.812.753-2.746v-.334c.169-1.059.253-2.129.251-3.2a28.72 28.72 0 0 0-.251-4.227 3.7 3.7 0 0 0-.072-.513 24.37 24.37 0 0 0-.622-2.878v-.203c-.119-.43-.263-.836-.406-1.194a1.448 1.448 0 0 0-.072-.203 6.946 6.946 0 0 1 1.339 1.731c.075.128.143.26.203.394.054.087.098.179.132.275.286.643.514 1.31.681 1.994v.107c.314 1.362.443 2.76.383 4.156a15.215 15.215 0 0 1-.789 4.095Z" fill="#455A64"/><path d="M185.185 90.959c0 8.012 6.24 19.367 28.689 19.307 8.213 0 13.783-2.149 17.465-5.218a30.9 30.9 0 0 1-3.885 5.636c-3.861 4.43-12.826 7.904-20.86 7.57-8.367-.347-14.894-1.744-19.018-4.096-14.345-8.155-15.541-21.36-14.608-30.638 2.08-17.623 16.197-28.524 34.774-27.76a28.796 28.796 0 0 1 17.505 6.761 28.739 28.739 0 0 1 9.607 16.104 13.463 13.463 0 0 0-3.909-4.25 28.981 28.981 0 0 0-17.178-4.896c-6.814 0-16.461.824-21.852 4.99-3.945 3.045-6.754 8.478-6.73 16.49Z" fill="#FF7A00"/><path opacity=".4" d="M185.185 90.959c0 8.012 6.24 19.367 28.689 19.307 8.213 0 13.783-2.149 17.465-5.218a30.9 30.9 0 0 1-3.885 5.636c-3.861 4.43-12.826 7.904-20.86 7.57-8.367-.347-14.894-1.744-19.018-4.096-14.345-8.155-15.541-21.36-14.608-30.638 2.08-17.623 16.197-28.524 34.774-27.76a28.796 28.796 0 0 1 17.505 6.761 28.739 28.739 0 0 1 9.607 16.104 13.463 13.463 0 0 0-3.909-4.25 28.981 28.981 0 0 0-17.178-4.896c-6.814 0-16.461.824-21.852 4.99-3.945 3.045-6.754 8.478-6.73 16.49Z" fill="#fff"/><path d="M190.014 67.485a30.206 30.206 0 0 1 16.64-5.97 52.135 52.135 0 0 0-16.64 5.97Zm-6.515 6.698a12.129 12.129 0 0 1 5.32-5.827c-.227.251-.466.478-.694.729a62.575 62.575 0 0 0-4.626 5.098Zm7.627-11.605c0 .31-.442.537-.945.513-.502-.024-.908-.287-.896-.585.012-.299.43-.526.944-.514.514.012.909.287.897.586Zm5.535-1.528c0 .775-1.017 1.432-2.32 1.48-1.302.047-2.39-.55-2.39-1.326s1.016-1.432 2.319-1.468c1.303-.036 2.367.549 2.391 1.313Z" opacity=".5" fill="#fff"/><path d="M213.899 110.266c-22.474.059-28.69-11.296-28.69-19.307 0-8.012 2.785-13.445 6.754-16.49 5.391-4.166 15.038-4.978 21.852-4.99a28.979 28.979 0 0 1 17.178 4.895c2.869 1.958 5.033 5.278 6.108 9.815a24.104 24.104 0 0 0-2.558-9.672c-4.566-8.214-17.058-9.743-23.095-9.73-6.037.011-21.517 1.575-26 9.826-4.483 8.25-3.347 24.74 1.757 30.005 4.591 4.776 12.827 7.355 24.327 7.248 7.866-.084 13.759-1.075 19.306-6.054.505-.464.973-.967 1.398-1.504-3.682 3.45-9.491 5.934-18.337 5.958Z" fill="#FF7A00"/><path d="M191.664 72.69c0 .24-.251.478-.645.55-.395.072-.766-.06-.801-.298-.036-.24.251-.478.645-.55.395-.071.753.072.801.299Zm4.017-2.089c.155.585-.538 1.266-1.554 1.517-1.016.25-1.937 0-2.092-.621-.156-.621.55-1.266 1.554-1.517 1.004-.25 1.984.024 2.092.621Z" opacity=".5" fill="#fff"/><path opacity=".8" d="M237.794 90.84c0 8.011-4.901 19.378-23.908 19.426-22.473 0-28.689-11.295-28.689-19.307 0-8.012 2.785-13.445 6.742-16.49 5.403-4.166 15.05-4.978 21.875-4.99a29.049 29.049 0 0 1 17.166 4.895c4.149 2.83 6.802 8.454 6.814 16.466Z" fill="#263238"/><g opacity=".5" fill="#fff"><path d="M206.583 109.848a33.12 33.12 0 0 1-11.524-3.463 24.112 24.112 0 0 1-3.586-9.074 41.975 41.975 0 0 1 2.486-24.083 27.687 27.687 0 0 1 8.213-2.782c-4.663 9.91-6.013 28.5 4.411 39.402Z"/><path d="M202.279 95.078a28.788 28.788 0 0 0 1.016 3.797 19.908 19.908 0 0 1-1.578-3.653c-2.39-8.358-.514-17.397 3.085-25.182a1.41 1.41 0 0 1 .322 0c-2.45 8.06-4.423 16.644-2.845 25.038Zm26.191 11.94c-.843.459-1.718.858-2.618 1.194 7.173-5.015 10.46-14.328 8.99-22.937-.096-1.373-.49-2.698-.694-4.071.51 1.296.934 2.624 1.268 3.976 2.103 7.845-.562 16.967-6.946 21.838Z"/><path d="M232.738 92.917c.132-5.72-.406-11.725-2.905-16.955 3.837 3.857 4.782 11.94 2.905 16.955Z"/></g><path d="M182.448 89.86c.251 5.41-2.547 9.935-6.252 10.102-3.706.167-6.91-4.072-7.173-9.469-.263-5.396 2.546-9.934 6.252-10.1 3.706-.168 6.922 4.07 7.173 9.468Z" fill="#37474F"/><path d="M175.158 99.701c3.04-.14 5.307-4.5 5.064-9.737-.244-5.237-2.906-9.368-5.946-9.227-3.041.141-5.308 4.5-5.064 9.738.243 5.236 2.905 9.367 5.946 9.226Z" fill="#455A64"/><path d="M172.62 97.524c2.718-.126 4.771-3.443 4.586-7.409-.184-3.965-2.536-7.078-5.254-6.952-2.717.127-4.77 3.443-4.585 7.409.184 3.965 2.536 7.078 5.253 6.952Z" fill="#FF7A00"/><path opacity=".1" d="M172.62 97.524c2.718-.126 4.771-3.443 4.586-7.409-.184-3.965-2.536-7.078-5.254-6.952-2.717.127-4.77 3.443-4.585 7.409.184 3.965 2.536 7.078 5.253 6.952Z" fill="#000"/><path d="M175.574 90.183c.179 3.844-1.483 7.044-3.706 7.164-2.224.12-4.184-2.925-4.363-6.77-.18-3.845 1.482-7.033 3.717-7.164 2.236-.132 4.137 2.925 4.352 6.77Z" fill="#FF7A00"/><path d="M173.063 90.302c.108 2.388-1.111 4.334-2.725 4.406-1.614.072-3.025-1.779-3.132-4.131-.108-2.352 1.112-4.334 2.725-4.418 1.614-.084 3.037 1.78 3.132 4.143Z" fill="#37474F"/><path d="M172.095 90.35c.108 2.28-.884 4.19-2.211 4.25-1.327.06-2.499-1.743-2.606-4.035-.108-2.293.884-4.191 2.211-4.25 1.327-.06 2.499 1.742 2.606 4.035Z" fill="#455A64"/><path d="m300.517 552.882-2.331-495.51 3.383-.012 2.331 495.51-3.383.012Z" fill="#263238"/><path d="m356.032 169.094-.454-71.102c.008 1.218.214 2.428.61 3.581a12.844 12.844 0 0 0 1.924 3.582c6.276 8.358 24.111 13.958 53.172 16.716l.442 71.103c-29.06-2.746-46.884-8.358-53.172-16.716a12.837 12.837 0 0 1-1.912-3.582 11.256 11.256 0 0 1-.61-3.582Z" fill="#FF7A00"/><path d="m356.032 169.094-.454-71.102c.008 1.218.214 2.428.61 3.581a12.844 12.844 0 0 0 1.924 3.582c6.276 8.358 24.111 13.958 53.172 16.716l.442 71.103c-29.06-2.746-46.884-8.358-53.172-16.716a12.837 12.837 0 0 1-1.912-3.582 11.256 11.256 0 0 1-.61-3.582Z" fill="#000" opacity=".1"/><path d="M357.455 158.981a23.462 23.462 0 0 1-.718 5.158 21.77 21.77 0 0 0-.705 4.955l-.454-71.103a23.16 23.16 0 0 1 .705-4.955 22.72 22.72 0 0 0 .777-5.158c.084 21.337.263 49.778.395 71.103Z" fill="#FF7A00"/><path d="M357.455 158.981a23.462 23.462 0 0 1-.718 5.158 21.77 21.77 0 0 0-.705 4.955l-.454-71.103a23.16 23.16 0 0 1 .705-4.955 22.72 22.72 0 0 0 .777-5.158c.084 21.337.263 49.778.395 71.103Z" fill="#000" opacity=".4"/><path d="m357.06 87.878.442 71.103a11.228 11.228 0 0 0-.753-4.072 13.716 13.716 0 0 0-1.913-3.462c-6.527-8.681-24.649-13.874-55.132-15.809l-.454-71.103c30.483 1.935 48.605 7.165 55.132 15.81a13.8 13.8 0 0 1 1.925 3.462c.49 1.302.745 2.68.753 4.071Z" fill="#FF7A00"/></g><defs><clipPath id="Astronaut suit-cuate 1__a"><path fill="#fff" d="M0 0h434v597H0z"/></clipPath></defs></svg>